<?xml version="1.0" standalone="no"?>
<!DOCTYPE svg PUBLIC "-//W3C//DTD SVG 20010904//EN"
 "http://www.w3.org/TR/2001/REC-SVG-20010904/DTD/svg10.dtd">
<svg version="1.0" xmlns="http://www.w3.org/2000/svg"
 width="708.000000pt" height="708.000000pt" viewBox="0 0 708.000000 708.000000"
 preserveAspectRatio="xMidYMid meet">

<g transform="translate(0.000000,708.000000) scale(0.100000,-0.100000)"
fill="#000000" stroke="none">
<path d="M3305 7074 c-750 -60 -1417 -322 -1990 -780 -142 -114 -417 -388
-529 -529 -411 -515 -669 -1119 -758 -1775 -32 -238 -32 -662 0 -900 152
-1125 806 -2091 1789 -2642 415 -232 855 -371 1358 -430 142 -16 587 -17 730
0 284 33 547 92 795 178 1033 358 1851 1185 2195 2217 130 392 180 704 180
1127 0 423 -50 735 -180 1127 -345 1037 -1172 1869 -2210 2223 -239 81 -450
129 -728 166 -108 14 -549 26 -652 18z m-780 -440 c348 -110 632 -310 802
-563 42 -62 106 -192 127 -258 10 -30 24 -53 31 -53 8 0 45 7 82 14 38 8 127
20 197 26 263 23 462 -29 558 -144 37 -45 41 -71 18 -117 -12 -24 -29 -51 -37
-60 -13 -15 -9 -18 49 -24 99 -11 194 -33 266 -61 158 -63 316 -182 418 -317
55 -72 134 -236 157 -322 61 -232 35 -474 -74 -686 -64 -122 -121 -186 -214
-236 -144 -78 -182 -86 -420 -89 -143 -3 -218 -8 -234 -16 -14 -7 -42 -40 -63
-72 -21 -33 -38 -54 -38 -47 0 19 -47 61 -69 61 -11 0 -22 -9 -26 -19 -3 -10
-18 -24 -33 -30 -33 -14 -132 -30 -132 -22 0 3 7 40 16 81 30 143 -8 289 -107
414 -65 82 -90 206 -65 326 35 168 149 323 286 387 121 57 220 171 260 300 27
86 26 107 -5 121 -76 35 -86 163 -18 219 24 19 -20 67 -97 107 -201 106 -457
108 -659 6 l-59 -29 -27 62 c-164 381 -510 696 -913 833 -63 21 -88 25 -100
17 -27 -16 -108 -180 -146 -293 -19 -58 -42 -157 -52 -220 -44 -300 36 -636
202 -845 114 -145 167 -298 167 -490 0 -129 -13 -199 -61 -315 -24 -60 -26
-76 -26 -210 0 -138 1 -150 32 -240 83 -241 251 -422 477 -514 77 -31 198 -56
272 -56 121 0 316 45 412 94 18 10 35 15 37 13 3 -3 -9 -26 -25 -53 -37 -57
-37 -63 -10 -98 28 -36 102 -72 174 -85 118 -22 429 -33 780 -26 l350 6 90
-117 c50 -65 92 -121 93 -126 2 -4 -428 -8 -955 -8 l-958 0 -265 75 -264 74
-611 611 -610 610 269 0 270 0 81 -39 c52 -25 100 -59 135 -93 44 -43 52 -48
47 -28 -29 106 -17 200 43 331 35 75 40 95 40 158 0 132 -53 276 -163 439 -93
138 -168 358 -203 594 -20 136 -15 373 10 486 47 216 143 404 283 553 43 46
44 47 86 38 23 -6 78 -21 122 -35z m576 -1734 c105 -39 189 -124 232 -234 41
-104 13 -306 -46 -338 -12 -6 -56 -11 -97 -11 -254 1 -435 242 -364 484 22 76
50 117 82 122 46 8 143 -3 193 -23z m-996 -1290 l620 -620 265 -75 265 -75
968 0 969 0 19 -22 c17 -21 18 -42 19 -225 l0 -203 -127 0 c-146 0 -184 -12
-246 -74 -73 -73 -72 -64 -75 -436 -3 -295 -1 -340 14 -379 23 -60 79 -119
139 -147 44 -21 65 -24 173 -24 l122 0 0 -275 0 -275 -992 0 -993 0 -325 91
-325 92 -572 571 -573 571 0 226 0 226 93 5 c139 8 204 46 263 158 17 31 19
65 22 295 2 143 1 288 -3 322 -9 87 -53 158 -125 200 -51 31 -59 33 -152 33
l-98 0 0 330 c0 307 1 330 17 330 10 0 291 -273 638 -620z m1399 390 c65 -10
120 -21 123 -24 3 -2 -6 -29 -20 -60 -30 -65 -97 -140 -148 -167 l-38 -19 -21
29 c-34 48 -70 157 -70 211 0 48 1 50 28 50 15 0 80 -9 146 -20z m860 -296
c38 -6 46 -10 46 -28 0 -39 -47 -121 -103 -182 -103 -111 -213 -149 -407 -141
-63 2 -128 9 -143 16 l-29 11 51 56 c28 30 58 68 68 84 12 21 27 30 55 34 21
3 56 9 78 12 22 3 56 17 75 30 20 13 40 24 45 24 10 0 30 -64 30 -97 0 -48 21
-30 59 51 38 79 86 136 115 136 7 0 34 -3 60 -6z m286 -3 c0 -20 -48 -75 -80
-92 -34 -19 -93 -25 -124 -13 -11 4 -13 11 -5 31 5 13 9 35 9 48 0 22 5 24 53
28 106 7 147 7 147 -2z m-3030 -307 c37 -23 78 -88 85 -138 4 -23 5 -127 3
-231 -3 -177 -5 -193 -26 -230 -13 -22 -39 -52 -59 -65 -34 -23 -45 -25 -157
-25 -147 0 -179 14 -220 97 -25 51 -26 57 -26 257 0 233 7 260 74 319 l37 32
130 0 c103 0 137 -3 159 -16z m3767 -1179 c32 -16 61 -41 79 -67 l29 -41 3
-226 c4 -243 -1 -280 -45 -331 -51 -61 -85 -70 -255 -70 -174 0 -203 10 -262
83 l-31 39 -3 246 -3 247 31 48 c23 36 43 54 83 72 47 22 65 25 188 25 125 0
139 -2 186 -25z"/>
<path d="M4442 4720 c-154 -32 -279 -155 -311 -308 -19 -93 -15 -118 23 -147
110 -84 298 -90 423 -14 62 38 129 123 146 186 22 78 23 186 1 208 -55 54
-197 92 -282 75z"/>
<path d="M1540 3836 l0 -183 68 -5 c122 -9 228 -89 272 -204 19 -51 20 -77 20
-374 0 -356 -3 -375 -71 -461 -57 -72 -127 -108 -241 -124 l-48 -6 0 -162 0
-162 553 -552 552 -553 301 -85 302 -85 941 0 941 0 0 179 0 178 -78 6 c-44 3
-105 16 -138 28 -80 30 -162 112 -194 194 -23 57 -24 73 -28 354 -4 317 3 392
43 470 23 46 87 114 136 143 43 27 129 48 196 48 l63 0 0 125 0 125 -922 0
-922 0 -305 86 -306 86 -560 559 c-308 307 -563 559 -568 559 -4 0 -7 -83 -7
-184z m1930 -1468 c72 -37 97 -97 115 -281 17 -174 33 -213 99 -252 24 -14 67
-28 95 -32 l51 -6 -1 204 c0 304 -8 330 -106 345 -27 4 -43 12 -43 20 0 12 39
14 220 14 181 0 220 -2 220 -14 0 -9 -17 -16 -47 -21 -31 -4 -55 -16 -75 -35
l-28 -28 0 -241 0 -241 28 0 c87 0 171 61 192 139 6 23 15 91 20 151 10 127
22 175 52 220 33 48 66 69 121 76 39 6 47 4 47 -9 0 -9 -9 -19 -21 -22 -31
-10 -38 -43 -49 -208 -5 -84 -14 -168 -20 -187 -35 -123 -148 -202 -308 -217
l-63 -6 3 -199 c3 -197 3 -200 27 -219 13 -11 35 -22 50 -25 14 -3 36 -7 49
-10 13 -3 22 -10 19 -17 -3 -9 -62 -13 -221 -15 -204 -2 -217 -1 -214 15 2 13
16 20 47 24 88 12 106 70 99 324 l-3 119 -80 11 c-139 20 -233 79 -273 173
-24 56 -42 174 -42 276 0 106 -8 136 -41 155 -72 40 4 58 81 19z"/>
</g>
</svg>
